<svg xmlns="http://www.w3.org/2000/svg" viewBox="0 0 128 128" role="img" aria-label="Старинный ключ">
  <defs>
    <linearGradient id="keyGold" x1="0" y1="0" x2="1" y2="1">
      <stop stop-color="#fff0b5"/>
      <stop offset=".28" stop-color="#dfbd70"/>
      <stop offset=".62" stop-color="#a66a2f"/>
      <stop offset="1" stop-color="#50301d"/>
    </linearGradient>
    <linearGradient id="keyHighlight" x1="0" y1="0" x2="0" y2="1">
      <stop stop-color="#fff7d2" stop-opacity=".9"/>
      <stop offset="1" stop-color="#fff7d2" stop-opacity="0"/>
    </linearGradient>
  </defs>

  <!-- Drawn horizontally around the true visual centre, then rotated as one unit. -->
  <g transform="translate(0 -5) rotate(-38 64 64)" stroke="#f1d587" stroke-width="2.8" stroke-linejoin="round">
    <path fill="url(#keyGold)" fill-rule="evenodd" d="M18 64c0-15 12-27 27-27s27 12 27 27-12 27-27 27-27-12-27-27Zm14 0c0 7 6 13 13 13s13-6 13-13-6-13-13-13-13 6-13 13Z"/>
    <path fill="url(#keyGold)" d="M64 57h43v14H64z"/>
    <path fill="url(#keyGold)" d="M91 67h12v17H91zM77 67h10v11H77zM101 67h9v10h-9z"/>
    <path fill="url(#keyHighlight)" stroke="none" d="M34 50c8-7 20-7 28 1-9-3-20-1-27 7-3 3-5 7-6 11-1-8 1-14 5-19Zm34 10h34v4H68z"/>
    <path fill="none" d="M45 45c-10 0-19 8-19 19" opacity=".5"/>
  </g>

</svg>
