<svg xmlns="http://www.w3.org/2000/svg" viewBox="0 0 128 128" role="img" aria-label="Готическая роза">
  <defs>
    <radialGradient id="petal" cx="38%" cy="32%" r="72%"><stop stop-color="#e27b91"/><stop offset=".48" stop-color="#a93155"/><stop offset="1" stop-color="#55162f"/></radialGradient>
    <linearGradient id="gold" x1="0" y1="0" x2="1" y2="1"><stop stop-color="#f3d99a"/><stop offset=".5" stop-color="#c89646"/><stop offset="1" stop-color="#70401e"/></linearGradient>
    <filter id="shadow"><feDropShadow dx="0" dy="4" stdDeviation="4" flood-color="#160814" flood-opacity=".8"/></filter>
  </defs>
  <g filter="url(#shadow)" stroke="url(#gold)" stroke-width="3" stroke-linejoin="round">
    <path fill="url(#petal)" d="M64 106C45 96 26 82 25 61c-1-14 10-24 23-22 2-15 27-15 31 0 14-2 25 8 24 22-1 21-20 35-39 45Z"/>
    <path fill="#7a203f" d="M48 39c-7 15 2 28 16 32 14-4 23-17 16-32-10 2-14 8-16 15-2-7-6-13-16-15Z"/>
    <path fill="url(#petal)" d="M37 58c11-2 19 3 27 13-4 12-15 18-29 14-5-10-4-19 2-27Zm54 0c-11-2-19 3-27 13 4 12 15 18 29 14 5-10 4-19-2-27Z"/>
    <path fill="#d75a78" d="M64 49c9 6 11 15 0 24-11-9-9-18 0-24Z"/>
  </g>
  <path d="M64 105v13" stroke="url(#gold)" stroke-width="5" stroke-linecap="round"/>
</svg>
