<svg xmlns="http://www.w3.org/2000/svg" viewBox="0 0 128 128" role="img" aria-label="Запечатанный свиток">
  <defs>
    <linearGradient id="scrollPaper" x1="0" y1="0" x2="1" y2="1">
      <stop stop-color="#fff3cf"/>
      <stop offset=".46" stop-color="#ddc184"/>
      <stop offset="1" stop-color="#8d6338"/>
    </linearGradient>
    <linearGradient id="scrollGold" x1="0" y1="0" x2="1" y2="1">
      <stop stop-color="#f5dda0"/>
      <stop offset=".55" stop-color="#bd8840"/>
      <stop offset="1" stop-color="#6e411f"/>
    </linearGradient>
    <radialGradient id="scrollSeal" cx="38%" cy="30%" r="72%">
      <stop stop-color="#e46b78"/>
      <stop offset=".62" stop-color="#9b2945"/>
      <stop offset="1" stop-color="#4d1528"/>
    </radialGradient>
  </defs>

  <g stroke="url(#scrollGold)" stroke-width="2.8" stroke-linejoin="round">
    <path fill="url(#scrollPaper)" d="M28 36c0-9 8-16 18-16h55c-8 4-11 10-11 19v51c0 9-7 16-17 16H27c8-4 11-11 11-20V48c0-7-3-11-10-12Z"/>
    <path fill="#b98649" d="M28 36c11-2 19 3 19 12H22c-7 0-11-4-9-9 2-4 8-6 15-3Zm62 54c11-2 20 3 20 11 0 7-6 11-15 11H73c10-4 16-11 17-22Z"/>

    <path d="M51 48h28M51 59h31M51 70h22" fill="none" stroke="#795336" stroke-width="3.5" stroke-linecap="round" opacity=".85"/>
    <path d="M50 84c12-5 23-5 34 0" fill="none" stroke="#a77a45" stroke-width="2.5" stroke-linecap="round" opacity=".75"/>

    <!-- Wax seal with an ornamental rose/sigil, deliberately not a checkbox. -->
    <circle fill="url(#scrollSeal)" cx="76" cy="88" r="16"/>
    <path fill="#efc98b" stroke="none" d="M76 78c4 0 6 4 5 7 4-2 8 1 7 5-1 3-4 5-7 4-1 4-6 6-9 3-3 2-8 0-8-4-4 0-7-4-5-7 1-3 5-4 8-2 0-4 4-7 7-5 1-1 1-1 2-1Z"/>
    <circle cx="76" cy="88" r="4" fill="#8e263e" stroke="none"/>
  </g>
</svg>
