<svg xmlns="http://www.w3.org/2000/svg" viewBox="0 0 300 420"><defs>
<linearGradient id="skin" x1="0" y1="0" x2="1" y2="1"><stop stop-color="#e5c8c8"/><stop offset="1" stop-color="#9f7480"/></linearGradient>
<linearGradient id="cloth" x1="0" y1="0" x2="0" y2="1"><stop stop-color="#6e233e"/><stop offset="1" stop-color="#1a111e"/></linearGradient>
<filter id="glow"><feGaussianBlur stdDeviation="5" result="b"/><feMerge><feMergeNode in="b"/><feMergeNode in="SourceGraphic"/></feMerge></filter>
</defs><ellipse cx="150" cy="400" rx="118" ry="30" fill="#08070b" opacity=".6"/>
<path d="M35 420Q45 286 115 252H185Q255 286 265 420Z" fill="#18111e" stroke="#d6b56d" stroke-opacity=".45"/>
<path d="M72 420l42-161 36 49 36-49 42 161" fill="#30172a"/>
<ellipse cx="150" cy="166" rx="66" ry="82" fill="#d2b9bb"/>
<path d="M82 173Q78 63 151 48Q231 58 220 184L204 145Q198 91 150 83Q102 89 96 151Z" fill="#17141d"/>
<path d="M93 159q18-12 38 0 M169 159q18-12 38 0" stroke="#33222d" stroke-width="4" fill="none"/>
<ellipse cx="116" cy="163" rx="5" ry="7" fill="#7b233e"/><ellipse cx="184" cy="163" rx="5" ry="7" fill="#7b233e"/>
<path d="M136 211q14 8 28 0" stroke="#6e233e" stroke-width="4" fill="none"/>
<path d="M132 213l4 8 4-8 M160 213l4 8 4-8" fill="#f4e8dc"/>
<path d="M121 259l29 49 29-49" fill="#e9dfc8" opacity=".78"/></svg>