<svg xmlns="http://www.w3.org/2000/svg" viewBox="0 0 128 128" role="img" aria-labelledby="title">
  <title id="title">Raven Manor</title>
  <defs>
    <linearGradient id="gold" x1="0" y1="0" x2="1" y2="1">
      <stop stop-color="#f0d58e"/>
      <stop offset="1" stop-color="#9f7135"/>
    </linearGradient>
    <radialGradient id="wine" cx="45%" cy="40%" r="65%">
      <stop stop-color="#b74f6b"/>
      <stop offset="1" stop-color="#52182f"/>
    </radialGradient>
  </defs>
  <circle cx="64" cy="64" r="55" fill="#15101b" stroke="url(#gold)" stroke-width="3"/>
  <path d="M28 74c17-4 21-21 29-35 3 15 12 20 30 13-4 8-11 13-20 15 8 4 18 5 31 1-7 12-20 19-36 17-11-1-22-5-34-11Z" fill="#0b0810" stroke="#a7a7bc" stroke-width="2.5" stroke-linejoin="round"/>
  <path d="M56 42c8-7 19-7 27-1-9 1-13 5-14 12-4-5-8-8-13-11Z" fill="#2a1833" stroke="#d6b56d" stroke-width="2"/>
  <circle cx="77" cy="44" r="2.4" fill="#f0d58e"/>
  <path d="M43 91c4-10 13-16 22-16 11 0 19 6 22 16-9-4-14-3-22 2-7-5-13-6-22-2Z" fill="url(#wine)" stroke="#d6b56d" stroke-width="2"/>
  <path d="M53 85c4-7 8-10 12-10 5 0 9 3 13 10-5-2-9-1-13 3-4-4-8-5-12-3Z" fill="#d4798e" opacity=".75"/>
</svg>
