<svg xmlns="http://www.w3.org/2000/svg" viewBox="0 0 480 270" role="img">
<defs>
  <linearGradient id="night" x1="0" y1="0" x2="0" y2="1">
    <stop offset="0" stop-color="#17101f"/>
    <stop offset="1" stop-color="#09070d"/>
  </linearGradient>
  <linearGradient id="wall" x1="0" y1="0" x2="1" y2="1">
    <stop offset="0" stop-color="#30223a"/>
    <stop offset="1" stop-color="#130f18"/>
  </linearGradient>
  <linearGradient id="warm" x1="0" y1="0" x2="0" y2="1">
    <stop offset="0" stop-color="#fff1bd"/>
    <stop offset=".45" stop-color="#d6b56d"/>
    <stop offset="1" stop-color="#6e233e"/>
  </linearGradient>
  <radialGradient id="moon">
    <stop offset="0" stop-color="#eef0ff" stop-opacity=".95"/>
    <stop offset=".55" stop-color="#a7a7bc" stop-opacity=".32"/>
    <stop offset="1" stop-color="#a7a7bc" stop-opacity="0"/>
  </radialGradient>
  <filter id="glow" x="-80%" y="-80%" width="260%" height="260%">
    <feGaussianBlur stdDeviation="6" result="b"/>
    <feMerge><feMergeNode in="b"/><feMergeNode in="SourceGraphic"/></feMerge>
  </filter>
  <filter id="soft" x="-30%" y="-30%" width="160%" height="160%">
    <feGaussianBlur stdDeviation="2"/>
  </filter>
  
</defs>
<rect width="480" height="270" fill="url(#night)"/>
<rect width="480" height="270" fill="#275a46" opacity="0.08"/>
<circle cx="390" cy="46" r="92" fill="url(#moon)" opacity="0.38"/>
<g style="filter:saturate(0.55)">
<rect x="34" y="35" width="412" height="204" rx="8" fill="#10191a" stroke="#50695f"/>
<path d="M54 222V88 Q54 46 98 46H382Q426 46 426 88V222" fill="#112023" stroke="#769087" stroke-width="4"/>
<path d="M54 92h372 M102 47v175 M180 47v175 M260 47v175 M338 47v175" stroke="#627b73" stroke-width="3" opacity=".65"/>
<path d="M96 222 Q150 163 240 161 Q330 163 384 222" fill="#1a1820" stroke="#6d5b68" stroke-width="3"/>
<path d="M113 222 Q164 178 240 176 Q316 178 367 222" fill="#2b2630"/>
<g><path d="M60 43 q25 55 5 111 q30 42 -2 91" fill="none" stroke="#263e30" stroke-width="8"/><path d="M105 43 q-25 55 5 111 q30 42 -2 91" fill="none" stroke="#263e30" stroke-width="8"/><path d="M155 43 q-25 55 5 111 q30 42 -2 91" fill="none" stroke="#263e30" stroke-width="8"/><path d="M310 43 q25 55 5 111 q30 42 -2 91" fill="none" stroke="#263e30" stroke-width="8"/><path d="M360 43 q25 55 5 111 q30 42 -2 91" fill="none" stroke="#263e30" stroke-width="8"/><path d="M410 43 q25 55 5 111 q30 42 -2 91" fill="none" stroke="#263e30" stroke-width="8"/><g fill="#304f38"><ellipse cx="88" cy="92" rx="20" ry="7" transform="rotate(-25 88 92)"/><ellipse cx="358" cy="116" rx="23" ry="8" transform="rotate(25 358 116)"/></g></g></g>
<path d="M15 22 Q15 10 28 10 H452 Q465 10 465 22 V248 Q465 260 452 260 H28 Q15 260 15 248Z" fill="none" stroke="#d6b56d" stroke-opacity=".38" stroke-width="2"/>
<path d="M23 30 Q23 18 35 18 H445 Q457 18 457 30 V241 Q457 252 445 252 H35 Q23 252 23 241Z" fill="none" stroke="#6e233e" stroke-opacity=".5"/>
<path d="M31 24 l8 8 -8 8 -8-8z M449 24 l8 8 -8 8 -8-8z M31 230 l8 8 -8 8 -8-8z M449 230 l8 8 -8 8 -8-8z" fill="#d6b56d" fill-opacity=".55"/>

<path d="M0 244 C85 226 152 256 240 239 C330 221 391 249 480 232 V270 H0Z" fill="#07060a" opacity=".7"/>
</svg>