<svg xmlns="http://www.w3.org/2000/svg" viewBox="0 0 480 600" role="img">
<defs>
  <linearGradient id="night" x1="0" y1="0" x2="0" y2="1">
    <stop offset="0" stop-color="#17101f"/>
    <stop offset="1" stop-color="#09070d"/>
  </linearGradient>
  <linearGradient id="wall" x1="0" y1="0" x2="1" y2="1">
    <stop offset="0" stop-color="#30223a"/>
    <stop offset="1" stop-color="#130f18"/>
  </linearGradient>
  <linearGradient id="warm" x1="0" y1="0" x2="0" y2="1">
    <stop offset="0" stop-color="#fff1bd"/>
    <stop offset=".45" stop-color="#d6b56d"/>
    <stop offset="1" stop-color="#6e233e"/>
  </linearGradient>
  <radialGradient id="moon">
    <stop offset="0" stop-color="#eef0ff" stop-opacity=".95"/>
    <stop offset=".55" stop-color="#a7a7bc" stop-opacity=".32"/>
    <stop offset="1" stop-color="#a7a7bc" stop-opacity="0"/>
  </radialGradient>
  <filter id="glow" x="-80%" y="-80%" width="260%" height="260%">
    <feGaussianBlur stdDeviation="6" result="b"/>
    <feMerge><feMergeNode in="b"/><feMergeNode in="SourceGraphic"/></feMerge>
  </filter>
  <filter id="soft" x="-30%" y="-30%" width="160%" height="160%">
    <feGaussianBlur stdDeviation="2"/>
  </filter>
  
</defs><rect width="480" height="600" fill="url(#night)"/><circle cx="380" cy="95" r="96" fill="url(#moon)"/>
<path d="M30 560V250Q30 150 115 150H365Q450 150 450 250V560" fill="#0e0b13" stroke="#4a3b50" stroke-width="8"/>
<path d="M96 560V260Q96 190 145 190H335Q384 190 384 260V560" fill="#17111d" stroke="#6b536d" stroke-width="5"/>
<path d="M240 190v370 M98 286h284" stroke="#7c617b" stroke-width="4"/>
<path d="M50 565Q160 470 240 505Q320 470 430 565" fill="#141019"/>
<path d="M70 500q35-75 78-88 M410 500q-35-75-78-88" stroke="#26362f" stroke-width="16" fill="none"/>
<path d="M226 548q14-58 28 0" stroke="#d6b56d" stroke-opacity=".35" stroke-width="3"/>
<path d="M15 22 Q15 10 28 10 H452 Q465 10 465 22 V578 Q465 590 452 590 H28 Q15 590 15 578Z" fill="none" stroke="#d6b56d" stroke-opacity=".38" stroke-width="2"/>
<path d="M23 30 Q23 18 35 18 H445 Q457 18 457 30 V570 Q457 252 445 252 H35 Q23 252 23 570Z" fill="none" stroke="#6e233e" stroke-opacity=".5"/>
<path d="M31 24 l8 8 -8 8 -8-8z M449 24 l8 8 -8 8 -8-8z M31 558 l8 8 -8 8 -8-8z M449 558 l8 8 -8 8 -8-8z" fill="#d6b56d" fill-opacity=".55"/>
</svg>