<svg xmlns="http://www.w3.org/2000/svg" viewBox="0 0 480 600" role="img">
<defs>
  <linearGradient id="night" x1="0" y1="0" x2="0" y2="1">
    <stop offset="0" stop-color="#17101f"/>
    <stop offset="1" stop-color="#09070d"/>
  </linearGradient>
  <linearGradient id="wall" x1="0" y1="0" x2="1" y2="1">
    <stop offset="0" stop-color="#30223a"/>
    <stop offset="1" stop-color="#130f18"/>
  </linearGradient>
  <linearGradient id="warm" x1="0" y1="0" x2="0" y2="1">
    <stop offset="0" stop-color="#fff1bd"/>
    <stop offset=".45" stop-color="#d6b56d"/>
    <stop offset="1" stop-color="#6e233e"/>
  </linearGradient>
  <radialGradient id="moon">
    <stop offset="0" stop-color="#eef0ff" stop-opacity=".95"/>
    <stop offset=".55" stop-color="#a7a7bc" stop-opacity=".32"/>
    <stop offset="1" stop-color="#a7a7bc" stop-opacity="0"/>
  </radialGradient>
  <filter id="glow" x="-80%" y="-80%" width="260%" height="260%">
    <feGaussianBlur stdDeviation="6" result="b"/>
    <feMerge><feMergeNode in="b"/><feMergeNode in="SourceGraphic"/></feMerge>
  </filter>
  <filter id="soft" x="-30%" y="-30%" width="160%" height="160%">
    <feGaussianBlur stdDeviation="2"/>
  </filter>
  
</defs><rect width="480" height="600" fill="url(#night)"/>
<path d="M35 570V135Q35 55 105 55H375Q445 55 445 135V570" fill="#201527" stroke="#67536b" stroke-width="7"/>
<path d="M170 570V180Q170 95 240 95Q310 95 310 180V570Z" fill="#0d0a10" stroke="#8a6d82" stroke-width="6"/>
<path d="M240 55v70 M185 150q55 45 110 0" stroke="#d6b56d" stroke-opacity=".65" stroke-width="4"/>
<g filter="url(#glow)" fill="#ffe39a"><circle cx="196" cy="170" r="7"/><circle cx="222" cy="188" r="7"/><circle cx="258" cy="188" r="7"/><circle cx="284" cy="170" r="7"/></g>
<path d="M0 520Q150 470 240 515Q330 470 480 520V600H0Z" fill="#100c14"/>
<path d="M15 22 Q15 10 28 10 H452 Q465 10 465 22 V578 Q465 590 452 590 H28 Q15 590 15 578Z" fill="none" stroke="#d6b56d" stroke-opacity=".38" stroke-width="2"/>
<path d="M23 30 Q23 18 35 18 H445 Q457 18 457 30 V570 Q457 252 445 252 H35 Q23 252 23 570Z" fill="none" stroke="#6e233e" stroke-opacity=".5"/>
<path d="M31 24 l8 8 -8 8 -8-8z M449 24 l8 8 -8 8 -8-8z M31 558 l8 8 -8 8 -8-8z M449 558 l8 8 -8 8 -8-8z" fill="#d6b56d" fill-opacity=".55"/>
</svg>