<svg xmlns="http://www.w3.org/2000/svg" viewBox="0 0 480 600" role="img">
<defs>
  <linearGradient id="night" x1="0" y1="0" x2="0" y2="1">
    <stop offset="0" stop-color="#17101f"/>
    <stop offset="1" stop-color="#09070d"/>
  </linearGradient>
  <linearGradient id="wall" x1="0" y1="0" x2="1" y2="1">
    <stop offset="0" stop-color="#30223a"/>
    <stop offset="1" stop-color="#130f18"/>
  </linearGradient>
  <linearGradient id="warm" x1="0" y1="0" x2="0" y2="1">
    <stop offset="0" stop-color="#fff1bd"/>
    <stop offset=".45" stop-color="#d6b56d"/>
    <stop offset="1" stop-color="#6e233e"/>
  </linearGradient>
  <radialGradient id="moon">
    <stop offset="0" stop-color="#eef0ff" stop-opacity=".95"/>
    <stop offset=".55" stop-color="#a7a7bc" stop-opacity=".32"/>
    <stop offset="1" stop-color="#a7a7bc" stop-opacity="0"/>
  </radialGradient>
  <filter id="glow" x="-80%" y="-80%" width="260%" height="260%">
    <feGaussianBlur stdDeviation="6" result="b"/>
    <feMerge><feMergeNode in="b"/><feMergeNode in="SourceGraphic"/></feMerge>
  </filter>
  <filter id="soft" x="-30%" y="-30%" width="160%" height="160%">
    <feGaussianBlur stdDeviation="2"/>
  </filter>
  
</defs><rect width="480" height="600" fill="#0c0911"/>
<path d="M85 600V125Q85 45 160 45H320Q395 45 395 125V600" fill="#17131f" stroke="#5d5268" stroke-width="6"/>
<path d="M145 395V145Q145 85 240 85Q335 85 335 145V395Z" fill="#20273c" stroke="#7983a2" stroke-width="5"/>
<circle cx="280" cy="150" r="64" fill="url(#moon)"/><path d="M240 87v308 M147 230h186" stroke="#75809b" stroke-opacity=".5"/>
<path d="M0 470Q125 430 240 490Q355 430 480 470V600H0Z" fill="#100d14"/>
<path d="M55 470q42-92 96-122 M421 470q-42-92-96-122" stroke="#35253b" stroke-width="24" fill="none"/>
<path d="M15 22 Q15 10 28 10 H452 Q465 10 465 22 V578 Q465 590 452 590 H28 Q15 590 15 578Z" fill="none" stroke="#d6b56d" stroke-opacity=".38" stroke-width="2"/>
<path d="M23 30 Q23 18 35 18 H445 Q457 18 457 30 V570 Q457 252 445 252 H35 Q23 252 23 570Z" fill="none" stroke="#6e233e" stroke-opacity=".5"/>
<path d="M31 24 l8 8 -8 8 -8-8z M449 24 l8 8 -8 8 -8-8z M31 558 l8 8 -8 8 -8-8z M449 558 l8 8 -8 8 -8-8z" fill="#d6b56d" fill-opacity=".55"/>
</svg>