<svg xmlns="http://www.w3.org/2000/svg" viewBox="0 0 480 270" role="img">
<defs>
  <linearGradient id="night" x1="0" y1="0" x2="0" y2="1">
    <stop offset="0" stop-color="#17101f"/>
    <stop offset="1" stop-color="#09070d"/>
  </linearGradient>
  <linearGradient id="wall" x1="0" y1="0" x2="1" y2="1">
    <stop offset="0" stop-color="#30223a"/>
    <stop offset="1" stop-color="#130f18"/>
  </linearGradient>
  <linearGradient id="warm" x1="0" y1="0" x2="0" y2="1">
    <stop offset="0" stop-color="#fff1bd"/>
    <stop offset=".45" stop-color="#d6b56d"/>
    <stop offset="1" stop-color="#6e233e"/>
  </linearGradient>
  <radialGradient id="moon">
    <stop offset="0" stop-color="#eef0ff" stop-opacity=".95"/>
    <stop offset=".55" stop-color="#a7a7bc" stop-opacity=".32"/>
    <stop offset="1" stop-color="#a7a7bc" stop-opacity="0"/>
  </radialGradient>
  <filter id="glow" x="-80%" y="-80%" width="260%" height="260%">
    <feGaussianBlur stdDeviation="6" result="b"/>
    <feMerge><feMergeNode in="b"/><feMergeNode in="SourceGraphic"/></feMerge>
  </filter>
  <filter id="soft" x="-30%" y="-30%" width="160%" height="160%">
    <feGaussianBlur stdDeviation="2"/>
  </filter>
  
</defs>
<rect width="480" height="270" fill="url(#night)"/>
<rect width="480" height="270" fill="#552039" opacity="0.42"/>
<circle cx="390" cy="46" r="92" fill="url(#moon)" opacity="0.62"/>
<g style="filter:saturate(1.0)">
<rect x="42" y="45" width="396" height="194" rx="6" fill="url(#wall)" stroke="#4a3b50"/>
<path d="M70 232V74 Q70 52 92 52H132Q154 52 154 74V232 M326 232V74Q326 52 348 52H388Q410 52 410 74V232" fill="#18111e" stroke="#6a566e" stroke-width="5"/>
<path d="M178 232V96 Q178 48 240 48 Q302 48 302 96V232Z" fill="#0a080d" stroke="#826c82" stroke-width="6"/>
<path d="M199 232V105 Q199 68 240 68 Q281 68 281 105V232Z" fill="#111019" stroke="#3f3947" stroke-width="3"/>
<path d="M45 204H435 M45 215H435" stroke="#806c76" stroke-opacity=".35"/>
<path d="M54 235 H426 L450 260 H30Z" fill="#17121b" stroke="#463949"/>
<path d="M72 235 l50 25 M138 235 l35 25 M342 235 l-35 25 M408 235 l-48 25" stroke="#5d4a5e" stroke-opacity=".35"/>
<path d="M202 228V104 Q202 73 240 73 Q278 73 278 104V228Z" fill="url(#warm)" opacity="0.35"/>
<path d="M233 75V225 M247 75V225" stroke="#d6b56d" stroke-opacity=".18"/><g filter="url(#glow)">
<path d="M240 38V58" stroke="#d6b56d" stroke-width="2"/>
<path d="M205 68 Q240 91 275 68" fill="none" stroke="#d6b56d" stroke-width="3"/>
<path d="M211 69v18 M229 78v20 M251 78v20 M269 69v18" stroke="#d6b56d" stroke-width="2"/>
<circle cx="211" cy="89" r="4" fill="#ffe8a1"/><circle cx="229" cy="100" r="4" fill="#ffe8a1"/><circle cx="251" cy="100" r="4" fill="#ffe8a1"/><circle cx="269" cy="89" r="4" fill="#ffe8a1"/>
</g><g>
<rect x="92" y="93" width="52" height="70" rx="2" fill="#120d16" stroke="#d6b56d" stroke-width="4"/>
<rect x="98" y="99" width="40" height="58" fill="#342339"/>
<ellipse cx="118" cy="119" rx="11" ry="14" fill="#bda9ae"/>
<path d="M102 151 Q118 126 134 151" fill="#6e233e"/><path d="M107 111 Q118 98 129 111" fill="#2b1d2d"/>
</g>
<path d="M330 221 q22-32 44 0" fill="#36263d" stroke="#d6b56d" stroke-opacity=".5"/>
<path d="M52 210H428" stroke="#d6b56d" stroke-opacity=".24" stroke-width="2"/></g>
<path d="M15 22 Q15 10 28 10 H452 Q465 10 465 22 V248 Q465 260 452 260 H28 Q15 260 15 248Z" fill="none" stroke="#d6b56d" stroke-opacity=".38" stroke-width="2"/>
<path d="M23 30 Q23 18 35 18 H445 Q457 18 457 30 V241 Q457 252 445 252 H35 Q23 252 23 241Z" fill="none" stroke="#6e233e" stroke-opacity=".5"/>
<path d="M31 24 l8 8 -8 8 -8-8z M449 24 l8 8 -8 8 -8-8z M31 230 l8 8 -8 8 -8-8z M449 230 l8 8 -8 8 -8-8z" fill="#d6b56d" fill-opacity=".55"/>

<path d="M0 244 C85 226 152 256 240 239 C330 221 391 249 480 232 V270 H0Z" fill="#07060a" opacity=".7"/>
</svg>